<svg width="153" height="19" viewBox="0 0 153 19" fill="none" xmlns="http://www.w3.org/2000/svg">
<mask id="path-1-outside-1_4_239" maskUnits="userSpaceOnUse" x="-0.393311" y="-0.399963" width="154" height="20" fill="black">
<rect fill="white" x="-0.393311" y="-0.399963" width="154" height="20"/>
<path d="M9.74868 17.883C8.47547 17.883 7.28872 17.6786 6.18842 17.2699C5.10384 16.8455 4.16073 16.2482 3.35908 15.478C2.55743 14.7078 1.92869 13.804 1.47285 12.7666C1.03273 11.7292 0.812671 10.5896 0.812671 9.34779C0.812671 8.10602 1.03273 6.96643 1.47285 5.929C1.92869 4.89158 2.55743 3.98776 3.35908 3.21755C4.17644 2.44734 5.12742 1.85789 6.212 1.44921C7.29658 1.02481 8.48333 0.812608 9.77225 0.812608C11.2026 0.812608 12.4916 1.06411 13.639 1.5671C14.8022 2.05437 15.7767 2.77743 16.5627 3.73626L14.1106 5.99973C13.5447 5.35527 12.916 4.87586 12.2243 4.56149C11.5327 4.2314 10.7782 4.06635 9.96088 4.06635C9.19067 4.06635 8.48333 4.1921 7.83887 4.4436C7.19441 4.69509 6.6364 5.05662 6.16484 5.52818C5.69329 5.99973 5.3239 6.55774 5.05668 7.20221C4.80519 7.84667 4.67944 8.56186 4.67944 9.34779C4.67944 10.1337 4.80519 10.8489 5.05668 11.4934C5.3239 12.1378 5.69329 12.6958 6.16484 13.1674C6.6364 13.639 7.19441 14.0005 7.83887 14.252C8.48333 14.5035 9.19067 14.6292 9.96088 14.6292C10.7782 14.6292 11.5327 14.472 12.2243 14.1577C12.916 13.8276 13.5447 13.3324 14.1106 12.6723L16.5627 14.9357C15.7767 15.8946 14.8022 16.6255 13.639 17.1285C12.4916 17.6315 11.1948 17.883 9.74868 17.883ZM19.1421 17.6V1.09554H22.9617V14.4878H31.2375V17.6H19.1421ZM31.2946 17.6L38.6509 1.09554H42.4233L49.8032 17.6H45.795L39.759 3.02893H41.268L35.2085 17.6H31.2946ZM34.9727 14.0634L35.9866 11.1633H44.4746L45.512 14.0634H34.9727ZM51.5155 17.6V1.09554H55.3352V17.6H51.5155ZM59.252 17.6V1.09554H62.4115L69.4377 12.743H67.7636L74.6719 1.09554H77.8078L77.855 17.6H74.2711L74.2475 6.58918H74.9077L69.3905 15.8553H67.6693L62.0342 6.58918H62.8359V17.6H59.252ZM88.448 17.6V1.09554H91.6075L101.345 12.9788H99.8126V1.09554H103.585V17.6H100.449L90.6879 5.7168H92.2205V17.6H88.448ZM115.506 17.883C114.202 17.883 112.991 17.6708 111.875 17.2464C110.775 16.822 109.816 16.2247 108.999 15.4545C108.197 14.6842 107.569 13.7804 107.113 12.743C106.673 11.7056 106.452 10.5738 106.452 9.34779C106.452 8.12174 106.673 6.99 107.113 5.95258C107.569 4.91515 108.205 4.01134 109.022 3.24113C109.84 2.47092 110.799 1.87361 111.899 1.44921C112.999 1.02481 114.194 0.812608 115.483 0.812608C116.787 0.812608 117.982 1.02481 119.067 1.44921C120.167 1.87361 121.118 2.47092 121.92 3.24113C122.737 4.01134 123.374 4.91515 123.829 5.95258C124.285 6.97429 124.513 8.10602 124.513 9.34779C124.513 10.5738 124.285 11.7134 123.829 12.7666C123.374 13.804 122.737 14.7078 121.92 15.478C121.118 16.2325 120.167 16.822 119.067 17.2464C117.982 17.6708 116.795 17.883 115.506 17.883ZM115.483 14.6292C116.222 14.6292 116.897 14.5035 117.51 14.252C118.139 14.0005 118.689 13.639 119.161 13.1674C119.633 12.6958 119.994 12.1378 120.246 11.4934C120.513 10.8489 120.646 10.1337 120.646 9.34779C120.646 8.56186 120.513 7.84667 120.246 7.20221C119.994 6.55774 119.633 5.99973 119.161 5.52818C118.705 5.05662 118.163 4.69509 117.534 4.4436C116.905 4.1921 116.222 4.06635 115.483 4.06635C114.744 4.06635 114.06 4.1921 113.432 4.4436C112.819 4.69509 112.276 5.05662 111.805 5.52818C111.333 5.99973 110.964 6.55774 110.697 7.20221C110.445 7.84667 110.319 8.56186 110.319 9.34779C110.319 10.118 110.445 10.8332 110.697 11.4934C110.964 12.1378 111.325 12.6958 111.781 13.1674C112.253 13.639 112.803 14.0005 113.432 14.252C114.06 14.5035 114.744 14.6292 115.483 14.6292ZM130.815 17.6L125.416 1.09554H129.377L134.069 15.7138H132.088L136.993 1.09554H140.529L145.245 15.7138H143.335L148.145 1.09554H151.8L146.4 17.6H142.298L138.124 4.77369H139.209L134.918 17.6H130.815Z"/>
</mask>
<path d="M9.74868 17.883C8.47547 17.883 7.28872 17.6786 6.18842 17.2699C5.10384 16.8455 4.16073 16.2482 3.35908 15.478C2.55743 14.7078 1.92869 13.804 1.47285 12.7666C1.03273 11.7292 0.812671 10.5896 0.812671 9.34779C0.812671 8.10602 1.03273 6.96643 1.47285 5.929C1.92869 4.89158 2.55743 3.98776 3.35908 3.21755C4.17644 2.44734 5.12742 1.85789 6.212 1.44921C7.29658 1.02481 8.48333 0.812608 9.77225 0.812608C11.2026 0.812608 12.4916 1.06411 13.639 1.5671C14.8022 2.05437 15.7767 2.77743 16.5627 3.73626L14.1106 5.99973C13.5447 5.35527 12.916 4.87586 12.2243 4.56149C11.5327 4.2314 10.7782 4.06635 9.96088 4.06635C9.19067 4.06635 8.48333 4.1921 7.83887 4.4436C7.19441 4.69509 6.6364 5.05662 6.16484 5.52818C5.69329 5.99973 5.3239 6.55774 5.05668 7.20221C4.80519 7.84667 4.67944 8.56186 4.67944 9.34779C4.67944 10.1337 4.80519 10.8489 5.05668 11.4934C5.3239 12.1378 5.69329 12.6958 6.16484 13.1674C6.6364 13.639 7.19441 14.0005 7.83887 14.252C8.48333 14.5035 9.19067 14.6292 9.96088 14.6292C10.7782 14.6292 11.5327 14.472 12.2243 14.1577C12.916 13.8276 13.5447 13.3324 14.1106 12.6723L16.5627 14.9357C15.7767 15.8946 14.8022 16.6255 13.639 17.1285C12.4916 17.6315 11.1948 17.883 9.74868 17.883ZM19.1421 17.6V1.09554H22.9617V14.4878H31.2375V17.6H19.1421ZM31.2946 17.6L38.6509 1.09554H42.4233L49.8032 17.6H45.795L39.759 3.02893H41.268L35.2085 17.6H31.2946ZM34.9727 14.0634L35.9866 11.1633H44.4746L45.512 14.0634H34.9727ZM51.5155 17.6V1.09554H55.3352V17.6H51.5155ZM59.252 17.6V1.09554H62.4115L69.4377 12.743H67.7636L74.6719 1.09554H77.8078L77.855 17.6H74.2711L74.2475 6.58918H74.9077L69.3905 15.8553H67.6693L62.0342 6.58918H62.8359V17.6H59.252ZM88.448 17.6V1.09554H91.6075L101.345 12.9788H99.8126V1.09554H103.585V17.6H100.449L90.6879 5.7168H92.2205V17.6H88.448ZM115.506 17.883C114.202 17.883 112.991 17.6708 111.875 17.2464C110.775 16.822 109.816 16.2247 108.999 15.4545C108.197 14.6842 107.569 13.7804 107.113 12.743C106.673 11.7056 106.452 10.5738 106.452 9.34779C106.452 8.12174 106.673 6.99 107.113 5.95258C107.569 4.91515 108.205 4.01134 109.022 3.24113C109.84 2.47092 110.799 1.87361 111.899 1.44921C112.999 1.02481 114.194 0.812608 115.483 0.812608C116.787 0.812608 117.982 1.02481 119.067 1.44921C120.167 1.87361 121.118 2.47092 121.92 3.24113C122.737 4.01134 123.374 4.91515 123.829 5.95258C124.285 6.97429 124.513 8.10602 124.513 9.34779C124.513 10.5738 124.285 11.7134 123.829 12.7666C123.374 13.804 122.737 14.7078 121.92 15.478C121.118 16.2325 120.167 16.822 119.067 17.2464C117.982 17.6708 116.795 17.883 115.506 17.883ZM115.483 14.6292C116.222 14.6292 116.897 14.5035 117.51 14.252C118.139 14.0005 118.689 13.639 119.161 13.1674C119.633 12.6958 119.994 12.1378 120.246 11.4934C120.513 10.8489 120.646 10.1337 120.646 9.34779C120.646 8.56186 120.513 7.84667 120.246 7.20221C119.994 6.55774 119.633 5.99973 119.161 5.52818C118.705 5.05662 118.163 4.69509 117.534 4.4436C116.905 4.1921 116.222 4.06635 115.483 4.06635C114.744 4.06635 114.06 4.1921 113.432 4.4436C112.819 4.69509 112.276 5.05662 111.805 5.52818C111.333 5.99973 110.964 6.55774 110.697 7.20221C110.445 7.84667 110.319 8.56186 110.319 9.34779C110.319 10.118 110.445 10.8332 110.697 11.4934C110.964 12.1378 111.325 12.6958 111.781 13.1674C112.253 13.639 112.803 14.0005 113.432 14.252C114.06 14.5035 114.744 14.6292 115.483 14.6292ZM130.815 17.6L125.416 1.09554H129.377L134.069 15.7138H132.088L136.993 1.09554H140.529L145.245 15.7138H143.335L148.145 1.09554H151.8L146.4 17.6H142.298L138.124 4.77369H139.209L134.918 17.6H130.815Z" fill="#0B2252"/>
<path d="M6.18842 17.2699L5.89227 18.0268L5.90549 18.0317L6.18842 17.2699ZM3.35908 15.478L2.7961 16.064L2.7961 16.064L3.35908 15.478ZM1.47285 12.7666L0.724739 13.084L0.728913 13.0935L1.47285 12.7666ZM1.47285 5.929L0.728853 5.60209L0.7248 5.61165L1.47285 5.929ZM3.35908 3.21755L2.80178 2.62613L2.7961 2.63159L3.35908 3.21755ZM6.212 1.44921L6.49855 2.20966L6.5081 2.20592L6.212 1.44921ZM13.639 1.5671L13.3127 2.31142L13.3251 2.31658L13.639 1.5671ZM16.5627 3.73626L17.1138 4.33335L17.6768 3.81368L17.1911 3.22114L16.5627 3.73626ZM14.1106 5.99973L13.5 6.53588L14.0496 7.16186L14.6617 6.59683L14.1106 5.99973ZM12.2243 4.56149L11.8743 5.29483L11.8812 5.2981L11.8881 5.30124L12.2243 4.56149ZM6.16484 5.52818L6.73943 6.10276V6.10276L6.16484 5.52818ZM5.05668 7.20221L4.30607 6.89097L4.3028 6.89885L4.2997 6.9068L5.05668 7.20221ZM5.05668 11.4934L4.2997 11.7888L4.3028 11.7967L4.30607 11.8046L5.05668 11.4934ZM6.16484 13.1674L5.59026 13.742L6.16484 13.1674ZM12.2243 14.1577L12.5606 14.8974L12.5675 14.8943L12.5744 14.891L12.2243 14.1577ZM14.1106 12.6723L14.6617 12.0752L14.0423 11.5034L13.4936 12.1434L14.1106 12.6723ZM16.5627 14.9357L17.1911 15.4509L17.6768 14.8583L17.1138 14.3386L16.5627 14.9357ZM13.639 17.1285L13.3165 16.3826L13.3128 16.3843L13.639 17.1285ZM9.74868 17.883V17.0704C8.56385 17.0704 7.47373 16.8805 6.47135 16.5082L6.18842 17.2699L5.90549 18.0317C7.10371 18.4767 8.38709 18.6956 9.74868 18.6956V17.883ZM6.18842 17.2699L6.48453 16.5132C5.49443 16.1258 4.64317 15.5849 3.92206 14.8921L3.35908 15.478L2.7961 16.064C3.67828 16.9116 4.71325 17.5653 5.89232 18.0267L6.18842 17.2699ZM3.35908 15.478L3.92206 14.8921C3.19861 14.197 2.63069 13.3817 2.21679 12.4397L1.47285 12.7666L0.728913 13.0935C1.22669 14.2263 1.91626 15.2187 2.7961 16.064L3.35908 15.478ZM1.47285 12.7666L2.2209 12.4492C1.82752 11.522 1.62526 10.4917 1.62526 9.34779H0.812671H8.59499e-05C8.59499e-05 10.6874 0.237939 11.9363 0.7248 13.0839L1.47285 12.7666ZM0.812671 9.34779H1.62526C1.62526 8.2039 1.82752 7.17361 2.2209 6.24636L1.47285 5.929L0.7248 5.61165C0.237939 6.75925 8.59499e-05 8.00814 8.59499e-05 9.34779H0.812671ZM1.47285 5.929L2.21679 6.25588C2.63069 5.3139 3.19861 4.49859 3.92206 3.80351L3.35908 3.21755L2.7961 2.63159C1.91626 3.47693 1.22669 4.46925 0.728913 5.60212L1.47285 5.929ZM3.35908 3.21755L3.91635 3.80894C4.65301 3.11478 5.51119 2.58164 6.49852 2.2096L6.212 1.44921L5.92547 0.688816C4.74365 1.13414 3.69988 1.7799 2.80181 2.62616L3.35908 3.21755ZM6.212 1.44921L6.5081 2.20592C7.48877 1.82219 8.57385 1.62519 9.77225 1.62519V0.812608V2.30074e-05C8.39281 2.30074e-05 7.10439 0.227431 5.91589 0.692495L6.212 1.44921ZM9.77225 0.812608V1.62519C11.1062 1.62519 12.2818 1.85937 13.3128 2.31132L13.639 1.5671L13.9653 0.822878C12.7014 0.26884 11.2991 2.30074e-05 9.77225 2.30074e-05V0.812608ZM13.639 1.5671L13.3251 2.31658C14.368 2.7535 15.2339 3.397 15.9342 4.25138L16.5627 3.73626L17.1911 3.22114C16.3196 2.15786 15.2364 1.35525 13.953 0.817621L13.639 1.5671ZM16.5627 3.73626L16.0115 3.13917L13.5594 5.40264L14.1106 5.99973L14.6617 6.59683L17.1138 4.33335L16.5627 3.73626ZM14.1106 5.99973L14.7212 5.46359C14.0891 4.74375 13.3698 4.18955 12.5606 3.82174L12.2243 4.56149L11.8881 5.30124C12.4621 5.56216 13.0003 5.96679 13.5 6.53588L14.1106 5.99973ZM12.2243 4.56149L12.5744 3.82814C11.7662 3.44245 10.8911 3.25377 9.96088 3.25377V4.06635V4.87894C10.6654 4.87894 11.2992 5.02034 11.8743 5.29483L12.2243 4.56149ZM9.96088 4.06635V3.25377C9.10102 3.25377 8.29217 3.39443 7.54346 3.68661L7.83887 4.4436L8.13428 5.20058C8.6745 4.98977 9.28031 4.87894 9.96088 4.87894V4.06635ZM7.83887 4.4436L7.54346 3.68661C6.79833 3.97739 6.14424 4.39961 5.59026 4.95359L6.16484 5.52818L6.73943 6.10276C7.12856 5.71363 7.59049 5.41279 8.13428 5.20058L7.83887 4.4436ZM6.16484 5.52818L5.59026 4.95359C5.03985 5.504 4.6122 6.15266 4.30607 6.89097L5.05668 7.20221L5.8073 7.51344C6.0356 6.96283 6.34672 6.49547 6.73943 6.10276L6.16484 5.52818ZM5.05668 7.20221L4.2997 6.9068C4.00681 7.65733 3.86685 8.47443 3.86685 9.34779H4.67944H5.49202C5.49202 8.64929 5.60357 8.036 5.81367 7.49761L5.05668 7.20221ZM4.67944 9.34779H3.86685C3.86685 10.2212 4.00681 11.0382 4.2997 11.7888L5.05668 11.4934L5.81367 11.198C5.60357 10.6596 5.49202 10.0463 5.49202 9.34779H4.67944ZM5.05668 11.4934L4.30607 11.8046C4.6122 12.5429 5.03985 13.1916 5.59026 13.742L6.16484 13.1674L6.73943 12.5928C6.34672 12.2001 6.0356 11.7327 5.8073 11.1821L5.05668 11.4934ZM6.16484 13.1674L5.59026 13.742C6.14424 14.296 6.79833 14.7182 7.54346 15.009L7.83887 14.252L8.13428 13.495C7.59049 13.2828 7.12856 12.9819 6.73943 12.5928L6.16484 13.1674ZM7.83887 14.252L7.54346 15.009C8.29217 15.3011 9.10102 15.4418 9.96088 15.4418V14.6292V13.8166C9.28031 13.8166 8.6745 13.7058 8.13428 13.495L7.83887 14.252ZM9.96088 14.6292V15.4418C10.8853 15.4418 11.7555 15.2634 12.5606 14.8974L12.2243 14.1577L11.8881 13.4179C11.3099 13.6807 10.6712 13.8166 9.96088 13.8166V14.6292ZM12.2243 14.1577L12.5744 14.891C13.3812 14.506 14.0978 13.9357 14.7275 13.2011L14.1106 12.6723L13.4936 12.1434C12.9916 12.7291 12.4508 13.1492 11.8743 13.4243L12.2243 14.1577ZM14.1106 12.6723L13.5594 13.2694L16.0115 15.5328L16.5627 14.9357L17.1138 14.3386L14.6617 12.0752L14.1106 12.6723ZM16.5627 14.9357L15.9342 14.4206C15.2323 15.277 14.3635 15.9299 13.3165 16.3826L13.639 17.1285L13.9615 17.8743C15.2409 17.3211 16.3212 16.5122 17.1911 15.4509L16.5627 14.9357ZM13.639 17.1285L13.3128 16.3843C12.2829 16.8357 11.0997 17.0704 9.74868 17.0704V17.883V18.6956C11.2899 18.6956 12.7003 18.4272 13.9653 17.8727L13.639 17.1285ZM19.1421 17.6H18.3295V18.4126H19.1421V17.6ZM19.1421 1.09554V0.282956H18.3295V1.09554H19.1421ZM22.9617 1.09554H23.7743V0.282956H22.9617V1.09554ZM22.9617 14.4878H22.1491V15.3003H22.9617V14.4878ZM31.2375 14.4878H32.0501V13.6752H31.2375V14.4878ZM31.2375 17.6V18.4126H32.0501V17.6H31.2375ZM19.1421 17.6H19.9546V1.09554H19.1421H18.3295V17.6H19.1421ZM19.1421 1.09554V1.90813H22.9617V1.09554V0.282956H19.1421V1.09554ZM22.9617 1.09554H22.1491V14.4878H22.9617H23.7743V1.09554H22.9617ZM22.9617 14.4878V15.3003H31.2375V14.4878V13.6752H22.9617V14.4878ZM31.2375 14.4878H30.4249V17.6H31.2375H32.0501V14.4878H31.2375ZM31.2375 17.6V16.7875H19.1421V17.6V18.4126H31.2375V17.6ZM31.2946 17.6L30.5524 17.2692L30.0428 18.4126H31.2946V17.6ZM38.6509 1.09554V0.282956H38.1234L37.9087 0.764733L38.6509 1.09554ZM42.4233 1.09554L43.1651 0.763849L42.9501 0.282956H42.4233V1.09554ZM49.8032 17.6V18.4126H51.0567L50.545 17.2683L49.8032 17.6ZM45.795 17.6L45.0442 17.911L45.252 18.4126H45.795V17.6ZM39.759 3.02893V2.21634H38.5429L39.0083 3.33991L39.759 3.02893ZM41.268 3.02893L42.0183 3.34094L42.486 2.21634H41.268V3.02893ZM35.2085 17.6V18.4126H35.7506L35.9588 17.9121L35.2085 17.6ZM34.9727 14.0634L34.2057 13.7952L33.8279 14.8759H34.9727V14.0634ZM35.9866 11.1633V10.3507H35.4099L35.2195 10.8951L35.9866 11.1633ZM44.4746 11.1633L45.2397 10.8896L45.0469 10.3507H44.4746V11.1633ZM45.512 14.0634V14.8759H46.6657L46.2771 13.7897L45.512 14.0634ZM31.2946 17.6L32.0368 17.9308L39.3931 1.42635L38.6509 1.09554L37.9087 0.764733L30.5524 17.2692L31.2946 17.6ZM38.6509 1.09554V1.90813H42.4233V1.09554V0.282956H38.6509V1.09554ZM42.4233 1.09554L41.6815 1.42723L49.0614 17.9317L49.8032 17.6L50.545 17.2683L43.1651 0.763849L42.4233 1.09554ZM49.8032 17.6V16.7875H45.795V17.6V18.4126H49.8032V17.6ZM45.795 17.6L46.5457 17.2891L40.5098 2.71795L39.759 3.02893L39.0083 3.33991L45.0442 17.911L45.795 17.6ZM39.759 3.02893V3.84151H41.268V3.02893V2.21634H39.759V3.02893ZM41.268 3.02893L40.5177 2.71691L34.4582 17.288L35.2085 17.6L35.9588 17.9121L42.0183 3.34094L41.268 3.02893ZM35.2085 17.6V16.7875H31.2946V17.6V18.4126H35.2085V17.6ZM34.9727 14.0634L35.7398 14.3315L36.7536 11.4314L35.9866 11.1633L35.2195 10.8951L34.2057 13.7952L34.9727 14.0634ZM35.9866 11.1633V11.9759H44.4746V11.1633V10.3507H35.9866V11.1633ZM44.4746 11.1633L43.7095 11.437L44.7469 14.3371L45.512 14.0634L46.2771 13.7897L45.2397 10.8896L44.4746 11.1633ZM45.512 14.0634V13.2508H34.9727V14.0634V14.8759H45.512V14.0634ZM51.5155 17.6H50.703V18.4126H51.5155V17.6ZM51.5155 1.09554V0.282956H50.703V1.09554H51.5155ZM55.3352 1.09554H56.1477V0.282956H55.3352V1.09554ZM55.3352 17.6V18.4126H56.1477V17.6H55.3352ZM51.5155 17.6H52.3281V1.09554H51.5155H50.703V17.6H51.5155ZM51.5155 1.09554V1.90813H55.3352V1.09554V0.282956H51.5155V1.09554ZM55.3352 1.09554H54.5226V17.6H55.3352H56.1477V1.09554H55.3352ZM55.3352 17.6V16.7875H51.5155V17.6V18.4126H55.3352V17.6ZM59.252 17.6H58.4394V18.4126H59.252V17.6ZM59.252 1.09554V0.282956H58.4394V1.09554H59.252ZM62.4115 1.09554L63.1073 0.675814L62.8703 0.282956H62.4115V1.09554ZM69.4377 12.743V13.5556H70.8768L70.1335 12.3233L69.4377 12.743ZM67.7636 12.743L67.0647 12.3285L66.3369 13.5556H67.7636V12.743ZM74.6719 1.09554V0.282956H74.2091L73.973 0.681012L74.6719 1.09554ZM77.8078 1.09554L78.6204 1.09322L78.6181 0.282956H77.8078V1.09554ZM77.8549 17.6V18.4126H78.6699L78.6675 17.5977L77.8549 17.6ZM74.2711 17.6L73.4585 17.6018L73.4603 18.4126H74.2711V17.6ZM74.2475 6.58918V5.7766H73.4332L73.435 6.59092L74.2475 6.58918ZM74.9077 6.58918L75.6059 7.0049L76.3373 5.7766H74.9077V6.58918ZM69.3905 15.8553V16.6679H69.8524L70.0887 16.271L69.3905 15.8553ZM67.6693 15.8553L66.975 16.2775L67.2124 16.6679H67.6693V15.8553ZM62.0342 6.58918V5.7766H60.589L61.3399 7.0114L62.0342 6.58918ZM62.8359 6.58918H63.6484V5.7766H62.8359V6.58918ZM62.8359 17.6V18.4126H63.6484V17.6H62.8359ZM59.252 17.6H60.0646V1.09554H59.252H58.4394V17.6H59.252ZM59.252 1.09554V1.90813H62.4115V1.09554V0.282956H59.252V1.09554ZM62.4115 1.09554L61.7157 1.51527L68.7419 13.1627L69.4377 12.743L70.1335 12.3233L63.1073 0.675814L62.4115 1.09554ZM69.4377 12.743V11.9304H67.7636V12.743V13.5556H69.4377V12.743ZM67.7636 12.743L68.4625 13.1575L75.3708 1.51007L74.6719 1.09554L73.973 0.681012L67.0647 12.3285L67.7636 12.743ZM74.6719 1.09554V1.90813H77.8078V1.09554V0.282956H74.6719V1.09554ZM77.8078 1.09554L76.9952 1.09786L77.0424 17.6024L77.8549 17.6L78.6675 17.5977L78.6204 1.09322L77.8078 1.09554ZM77.8549 17.6V16.7875H74.2711V17.6V18.4126H77.8549V17.6ZM74.2711 17.6L75.0837 17.5983L75.0601 6.58744L74.2475 6.58918L73.435 6.59092L73.4585 17.6018L74.2711 17.6ZM74.2475 6.58918V7.40177H74.9077V6.58918V5.7766H74.2475V6.58918ZM74.9077 6.58918L74.2095 6.17346L68.6923 15.4396L69.3905 15.8553L70.0887 16.271L75.6059 7.0049L74.9077 6.58918ZM69.3905 15.8553V15.0427H67.6693V15.8553V16.6679H69.3905V15.8553ZM67.6693 15.8553L68.3636 15.4331L62.7285 6.16696L62.0342 6.58918L61.3399 7.0114L66.975 16.2775L67.6693 15.8553ZM62.0342 6.58918V7.40177H62.8359V6.58918V5.7766H62.0342V6.58918ZM62.8359 6.58918H62.0233V17.6H62.8359H63.6484V6.58918H62.8359ZM62.8359 17.6V16.7875H59.252V17.6V18.4126H62.8359V17.6ZM88.448 17.6H87.6355V18.4126H88.448V17.6ZM88.448 1.09554V0.282956H87.6355V1.09554H88.448ZM91.6075 1.09554L92.236 0.580507L91.9922 0.282956H91.6075V1.09554ZM101.345 12.9788V13.7914H103.062L101.974 12.4637L101.345 12.9788ZM99.8126 12.9788H99V13.7914H99.8126V12.9788ZM99.8126 1.09554V0.282956H99V1.09554H99.8126ZM103.585 1.09554H104.398V0.282956H103.585V1.09554ZM103.585 17.6V18.4126H104.398V17.6H103.585ZM100.449 17.6L99.8213 18.1158L100.065 18.4126H100.449V17.6ZM90.6879 5.7168V4.90422H88.9689L90.06 6.23258L90.6879 5.7168ZM92.2205 5.7168H93.0331V4.90422H92.2205V5.7168ZM92.2205 17.6V18.4126H93.0331V17.6H92.2205ZM88.448 17.6H89.2606V1.09554H88.448H87.6355V17.6H88.448ZM88.448 1.09554V1.90813H91.6075V1.09554V0.282956H88.448V1.09554ZM91.6075 1.09554L90.979 1.61058L100.717 13.4938L101.345 12.9788L101.974 12.4637L92.236 0.580507L91.6075 1.09554ZM101.345 12.9788V12.1662H99.8126V12.9788V13.7914H101.345V12.9788ZM99.8126 12.9788H100.625V1.09554H99.8126H99V12.9788H99.8126ZM99.8126 1.09554V1.90813H103.585V1.09554V0.282956H99.8126V1.09554ZM103.585 1.09554H102.772V17.6H103.585H104.398V1.09554H103.585ZM103.585 17.6V16.7875H100.449V17.6V18.4126H103.585V17.6ZM100.449 17.6L101.077 17.0843L91.3158 5.20102L90.6879 5.7168L90.06 6.23258L99.8213 18.1158L100.449 17.6ZM90.6879 5.7168V6.52939H92.2205V5.7168V4.90422H90.6879V5.7168ZM92.2205 5.7168H91.4079V17.6H92.2205H93.0331V5.7168H92.2205ZM92.2205 17.6V16.7875H88.448V17.6V18.4126H92.2205V17.6ZM111.875 17.2464L111.583 18.0045L111.587 18.0059L111.875 17.2464ZM108.999 15.4545L108.436 16.0404L108.442 16.0458L108.999 15.4545ZM107.113 12.743L106.365 13.0604L106.369 13.0699L107.113 12.743ZM107.113 5.95258L106.369 5.62567L106.365 5.63522L107.113 5.95258ZM109.022 3.24113L109.58 3.83252L109.022 3.24113ZM111.899 1.44921L111.607 0.691065V0.691066L111.899 1.44921ZM119.067 1.44921L118.771 2.20593L118.774 2.20735L119.067 1.44921ZM121.92 3.24113L121.357 3.82711L121.362 3.83252L121.92 3.24113ZM123.829 5.95258L123.085 6.27947L123.087 6.28366L123.829 5.95258ZM123.829 12.7666L124.573 13.0935L124.575 13.0894L123.829 12.7666ZM121.92 15.478L122.476 16.0698L122.477 16.0694L121.92 15.478ZM119.067 17.2464L118.774 16.4882L118.771 16.4897L119.067 17.2464ZM117.51 14.252L117.209 13.4975L117.202 13.5002L117.51 14.252ZM119.161 13.1674L118.586 12.5928L119.161 13.1674ZM120.246 11.4934L119.495 11.1821L119.492 11.19L119.489 11.198L120.246 11.4934ZM120.246 7.20221L119.489 7.49761L119.492 7.50556L119.495 7.51344L120.246 7.20221ZM119.161 5.52818L118.577 6.09302L118.586 6.10276L119.161 5.52818ZM117.534 4.4436L117.232 5.19806L117.534 4.4436ZM113.432 4.4436L113.13 3.6891L113.123 3.69182L113.432 4.4436ZM111.805 5.52818L112.379 6.10276V6.10276L111.805 5.52818ZM110.697 7.20221L109.946 6.89097L109.943 6.89885L109.94 6.9068L110.697 7.20221ZM110.697 11.4934L109.937 11.7826L109.941 11.7937L109.946 11.8046L110.697 11.4934ZM111.781 13.1674L111.197 13.7322L111.206 13.742L111.781 13.1674ZM113.432 14.252L113.13 15.0064L113.432 14.252ZM115.506 17.883V17.0704C114.291 17.0704 113.18 16.8731 112.164 16.4868L111.875 17.2464L111.587 18.0059C112.803 18.4685 114.112 18.6956 115.506 18.6956V17.883ZM111.875 17.2464L112.168 16.4882C111.161 16.0998 110.293 15.5575 109.556 14.8631L108.999 15.4545L108.442 16.0458C109.339 16.8919 110.389 17.5441 111.583 18.0045L111.875 17.2464ZM108.999 15.4545L109.562 14.8685C108.838 14.1734 108.271 13.3581 107.857 12.4161L107.113 12.743L106.369 13.0699C106.867 14.2028 107.556 15.1951 108.436 16.0404L108.999 15.4545ZM107.113 12.743L107.861 12.4256C107.467 11.4971 107.265 10.4745 107.265 9.34779H106.452H105.64C105.64 10.6732 105.878 11.914 106.365 13.0604L107.113 12.743ZM106.452 9.34779H107.265C107.265 8.22111 107.467 7.19844 107.861 6.26993L107.113 5.95258L106.365 5.63522C105.878 6.78157 105.64 8.02237 105.64 9.34779H106.452ZM107.113 5.95258L107.857 6.27946C108.269 5.34091 108.842 4.52728 109.58 3.83252L109.022 3.24113L108.465 2.64974C107.568 3.49539 106.868 4.4894 106.369 5.6257L107.113 5.95258ZM109.022 3.24113L109.58 3.83252C110.317 3.13811 111.184 2.59578 112.191 2.20735L111.899 1.44921L111.607 0.691066C110.413 1.15144 109.363 1.80372 108.465 2.64974L109.022 3.24113ZM111.899 1.44921L112.191 2.20735C113.19 1.82214 114.285 1.62519 115.483 1.62519V0.812608V2.30074e-05C114.103 2.30074e-05 112.808 0.227474 111.607 0.691065L111.899 1.44921ZM115.483 0.812608V1.62519C116.698 1.62519 117.791 1.82262 118.771 2.20592L119.067 1.44921L119.363 0.692495C118.173 0.226997 116.877 2.30074e-05 115.483 2.30074e-05V0.812608ZM119.067 1.44921L118.774 2.20735C119.78 2.5953 120.637 3.13615 121.357 3.82709L121.92 3.24113L122.483 2.65517C121.598 1.80568 120.554 1.15192 119.359 0.691066L119.067 1.44921ZM121.92 3.24113L121.362 3.83252C122.1 4.52728 122.673 5.34091 123.085 6.27946L123.829 5.95258L124.573 5.6257C124.074 4.4894 123.374 3.49539 122.477 2.64974L121.92 3.24113ZM123.829 5.95258L123.087 6.28366C123.492 7.19025 123.701 8.2075 123.701 9.34779H124.513H125.326C125.326 8.00455 125.079 6.75832 124.571 5.6215L123.829 5.95258ZM124.513 9.34779H123.701C123.701 10.4705 123.492 11.4994 123.084 12.4438L123.829 12.7666L124.575 13.0894C125.078 11.9275 125.326 10.6772 125.326 9.34779H124.513ZM123.829 12.7666L123.085 12.4397C122.673 13.3782 122.1 14.1919 121.362 14.8866L121.92 15.478L122.477 16.0694C123.374 15.2238 124.074 14.2298 124.573 13.0935L123.829 12.7666ZM121.92 15.478L121.363 14.8863C120.643 15.5637 119.783 16.0989 118.774 16.4882L119.067 17.2464L119.359 18.0045C120.55 17.545 121.593 16.9013 122.476 16.0698L121.92 15.478ZM119.067 17.2464L118.771 16.4897C117.79 16.8734 116.705 17.0704 115.506 17.0704V17.883V18.6956C116.886 18.6956 118.174 18.4681 119.363 18.0031L119.067 17.2464ZM115.483 14.6292V15.4418C116.315 15.4418 117.097 15.2998 117.819 15.0038L117.51 14.252L117.202 13.5002C116.698 13.7072 116.128 13.8166 115.483 13.8166V14.6292ZM117.51 14.252L117.812 15.0064C118.542 14.7147 119.185 14.2926 119.736 13.742L119.161 13.1674L118.586 12.5928C118.194 12.9853 117.737 13.2862 117.209 13.4975L117.51 14.252ZM119.161 13.1674L119.736 13.742C120.29 13.188 120.712 12.5339 121.003 11.7888L120.246 11.4934L119.489 11.198C119.276 11.7418 118.975 12.2037 118.586 12.5928L119.161 13.1674ZM120.246 11.4934L120.996 11.8046C121.309 11.0498 121.459 10.2271 121.459 9.34779H120.646H119.834C119.834 10.0404 119.716 10.6481 119.495 11.1821L120.246 11.4934ZM120.646 9.34779H121.459C121.459 8.46853 121.309 7.64582 120.996 6.89097L120.246 7.20221L119.495 7.51344C119.716 8.04751 119.834 8.6552 119.834 9.34779H120.646ZM120.246 7.20221L121.003 6.9068C120.712 6.16167 120.29 5.50758 119.736 4.95359L119.161 5.52818L118.586 6.10276C118.975 6.49189 119.276 6.95382 119.489 7.49761L120.246 7.20221ZM119.161 5.52818L119.745 4.96341C119.207 4.40669 118.568 3.9818 117.836 3.68913L117.534 4.4436L117.232 5.19806C117.758 5.40839 118.203 5.70655 118.577 6.09294L119.161 5.52818ZM117.534 4.4436L117.836 3.68913C117.103 3.39588 116.316 3.25377 115.483 3.25377V4.06635V4.87894C116.128 4.87894 116.708 4.98832 117.232 5.19806L117.534 4.4436ZM115.483 4.06635V3.25377C114.65 3.25377 113.863 3.39588 113.13 3.68913L113.432 4.4436L113.733 5.19806C114.258 4.98832 114.838 4.87894 115.483 4.87894V4.06635ZM113.432 4.4436L113.123 3.69182C112.41 3.98444 111.777 4.40643 111.23 4.95359L111.805 5.52818L112.379 6.10276C112.775 5.70681 113.227 5.40575 113.74 5.19537L113.432 4.4436ZM111.805 5.52818L111.23 4.95359C110.68 5.504 110.252 6.15266 109.946 6.89097L110.697 7.20221L111.447 7.51344C111.675 6.96283 111.987 6.49547 112.379 6.10276L111.805 5.52818ZM110.697 7.20221L109.94 6.9068C109.647 7.65733 109.507 8.47443 109.507 9.34779H110.319H111.132C111.132 8.64929 111.243 8.036 111.453 7.49761L110.697 7.20221ZM110.319 9.34779H109.507C109.507 10.2079 109.647 11.0221 109.937 11.7826L110.697 11.4934L111.456 11.2041C111.243 10.6443 111.132 10.0281 111.132 9.34779H110.319ZM110.697 11.4934L109.946 11.8046C110.25 12.5372 110.666 13.1827 111.197 13.7322L111.781 13.1674L112.365 12.6026C111.985 12.209 111.678 11.7385 111.447 11.1821L110.697 11.4934ZM111.781 13.1674L111.206 13.742C111.757 14.2926 112.4 14.7147 113.13 15.0064L113.432 14.252L113.733 13.4975C113.205 13.2862 112.748 12.9853 112.356 12.5928L111.781 13.1674ZM113.432 14.252L113.13 15.0064C113.863 15.2997 114.65 15.4418 115.483 15.4418V14.6292V13.8166C114.838 13.8166 114.258 13.7073 113.733 13.4975L113.432 14.252ZM130.815 17.6L130.043 17.8527L130.226 18.4126H130.815V17.6ZM125.416 1.09554V0.282956H124.295L124.644 1.3482L125.416 1.09554ZM129.377 1.09554L130.151 0.847206L129.97 0.282956H129.377V1.09554ZM134.069 15.7138V16.5264H135.183L134.843 15.4655L134.069 15.7138ZM132.088 15.7138L131.318 15.4554L130.959 16.5264H132.088V15.7138ZM136.993 1.09554V0.282956H136.408L136.222 0.837089L136.993 1.09554ZM140.529 1.09554L141.303 0.846076L141.121 0.282956H140.529V1.09554ZM145.245 15.7138V16.5264H146.361L146.018 15.4643L145.245 15.7138ZM143.335 15.7138L142.563 15.4598L142.212 16.5264H143.335V15.7138ZM148.145 1.09554V0.282956H147.557L147.373 0.841569L148.145 1.09554ZM151.799 1.09554L152.572 1.3482L152.92 0.282956H151.799V1.09554ZM146.4 17.6V18.4126H146.989L147.172 17.8527L146.4 17.6ZM142.298 17.6L141.525 17.8515L141.708 18.4126H142.298V17.6ZM138.124 4.77369V3.9611H137.005L137.352 5.0251L138.124 4.77369ZM139.209 4.77369L139.98 5.0315L140.338 3.9611H139.209V4.77369ZM134.918 17.6V18.4126H135.503L135.688 17.8578L134.918 17.6ZM130.815 17.6L131.588 17.3474L126.188 0.842886L125.416 1.09554L124.644 1.3482L130.043 17.8527L130.815 17.6ZM125.416 1.09554V1.90813H129.377V1.09554V0.282956H125.416V1.09554ZM129.377 1.09554L128.603 1.34388L133.295 15.9621L134.069 15.7138L134.843 15.4655L130.151 0.847206L129.377 1.09554ZM134.069 15.7138V14.9012H132.088V15.7138V16.5264H134.069V15.7138ZM132.088 15.7138L132.859 15.9723L137.763 1.35399L136.993 1.09554L136.222 0.837089L131.318 15.4554L132.088 15.7138ZM136.993 1.09554V1.90813H140.529V1.09554V0.282956H136.993V1.09554ZM140.529 1.09554L139.756 1.34501L144.472 15.9633L145.245 15.7138L146.018 15.4643L141.303 0.846076L140.529 1.09554ZM145.245 15.7138V14.9012H143.335V15.7138V16.5264H145.245V15.7138ZM143.335 15.7138L144.107 15.9678L148.917 1.34951L148.145 1.09554L147.373 0.841569L142.563 15.4598L143.335 15.7138ZM148.145 1.09554V1.90813H151.799V1.09554V0.282956H148.145V1.09554ZM151.799 1.09554L151.027 0.842886L145.628 17.3474L146.4 17.6L147.172 17.8527L152.572 1.3482L151.799 1.09554ZM146.4 17.6V16.7875H142.298V17.6V18.4126H146.4V17.6ZM142.298 17.6L143.07 17.3486L138.897 4.52227L138.124 4.77369L137.352 5.0251L141.525 17.8515L142.298 17.6ZM138.124 4.77369V5.58627H139.209V4.77369V3.9611H138.124V4.77369ZM139.209 4.77369L138.438 4.51587L134.147 17.3422L134.918 17.6L135.688 17.8578L139.98 5.0315L139.209 4.77369ZM134.918 17.6V16.7875H130.815V17.6V18.4126H134.918V17.6Z" fill="#EEE500" mask="url(#path-1-outside-1_4_239)"/>
</svg>
