<svg width="206" height="45" viewBox="0 0 206 45" fill="none" xmlns="http://www.w3.org/2000/svg">
<path d="M206 45H0V0H206V45Z" fill="#002778"/>
<path d="M12.9081 12.3397H22.1109C24.1451 12.3397 25.7822 12.8256 27.0223 13.7922C28.2624 14.7587 28.8879 15.9343 28.8879 17.3084C28.8879 18.1339 28.6758 18.8758 28.2461 19.5393C27.8164 20.2028 27.1964 20.7305 26.3805 21.1172C27.5118 21.4568 28.3821 22.0367 28.9913 22.8517C29.6004 23.6668 29.905 24.6334 29.905 25.741C29.905 27.4077 29.2741 28.787 28.0068 29.8789C26.7449 30.9761 25.1132 31.5247 23.1117 31.5247H12.9081C12.7069 31.5247 12.5383 31.462 12.4023 31.3418C12.2718 31.2164 12.201 31.0649 12.201 30.8768V13.0137C12.201 12.8204 12.2663 12.6584 12.3914 12.5278C12.522 12.4024 12.6906 12.3345 12.9027 12.3345L12.9081 12.3397ZM23.6121 18.0973C23.6121 17.6062 23.4163 17.2091 23.0301 16.9113C22.6385 16.6135 22.1 16.4672 21.4147 16.4672H17.33V19.7901H21.4147C22.1055 19.7901 22.6439 19.6334 23.0301 19.3251C23.4217 19.0168 23.6121 18.6041 23.6121 18.0973ZM24.3409 25.5633C24.3409 24.9782 24.1288 24.5236 23.71 24.1997C23.2912 23.8758 22.7038 23.7138 21.9532 23.7138H17.3246V27.4233H21.9532C22.6983 27.4233 23.2803 27.2561 23.7045 26.927C24.1288 26.5978 24.3409 26.1433 24.3409 25.5633Z" fill="#FFBB04"/>
<path d="M34.0873 12.3464H49.2349C49.4362 12.3464 49.6102 12.4143 49.7462 12.5501C49.8821 12.686 49.9529 12.8532 49.9529 13.0465V16.1917C49.9529 16.3798 49.8821 16.5366 49.7462 16.6672C49.6102 16.7978 49.4362 16.8657 49.2349 16.8657H38.5038V19.7445H47.1246C47.3204 19.7445 47.4836 19.8124 47.6195 19.9483C47.7555 20.0841 47.8262 20.2513 47.8262 20.4446V23.3338C47.8262 23.5271 47.7555 23.6943 47.6195 23.825C47.4836 23.9556 47.3149 24.0235 47.1246 24.0235H38.5038V27.0068H49.2349C49.4362 27.0068 49.6102 27.0747 49.7462 27.2053C49.8821 27.3359 49.9529 27.5031 49.9529 27.6964V30.8417C49.9529 31.0298 49.8821 31.1917 49.7462 31.3276C49.6102 31.4634 49.4362 31.5313 49.2349 31.5313H34.0873C33.8915 31.5313 33.7283 31.4634 33.5923 31.3328C33.4564 31.2022 33.3857 31.0402 33.3857 30.8417V13.0204C33.3857 12.8323 33.4564 12.6755 33.5923 12.5449C33.7283 12.4143 33.8969 12.3464 34.0873 12.3464Z" fill="#FFBB04"/>
<path d="M52.6844 16.1917V13.0465C52.6844 12.8532 52.7551 12.686 52.8965 12.5501C53.0379 12.4143 53.212 12.3464 53.4132 12.3464H69.1428C69.3441 12.3464 69.5181 12.4143 69.6541 12.5501C69.7901 12.686 69.8608 12.8532 69.8608 13.0465V16.1917C69.8608 16.385 69.7901 16.547 69.6541 16.6776C69.5181 16.803 69.3441 16.8709 69.1428 16.8709H63.9159V30.8469C63.9159 31.0402 63.8452 31.2074 63.7093 31.338C63.5733 31.4686 63.4047 31.5366 63.2143 31.5366H59.3417C59.1405 31.5366 58.9664 31.4686 58.825 31.338C58.6836 31.2074 58.6129 31.0454 58.6129 30.8469V16.8709H53.4132C53.212 16.8709 53.0379 16.803 52.8965 16.6724C52.7551 16.5418 52.6844 16.3798 52.6844 16.197V16.1917Z" fill="#FFBB04"/>
<path d="M75.2282 28.3148L74.3417 30.9272C74.2818 31.1205 74.1785 31.272 74.0371 31.3713C73.8957 31.4705 73.7162 31.5228 73.5041 31.5228H69.5009C69.18 31.5228 68.9625 31.4235 68.8428 31.225C68.7232 31.0264 68.7286 30.76 68.8646 30.4308L75.6253 13.0379C75.7068 12.8185 75.8265 12.6461 75.9897 12.5207C76.1528 12.3953 76.3269 12.3378 76.5118 12.3378H80.9011C81.0806 12.3378 81.2492 12.4005 81.4124 12.5207C81.5755 12.6461 81.6952 12.8185 81.7768 13.0379L88.5429 30.3995C88.6734 30.7234 88.6789 30.9899 88.5483 31.2041C88.4178 31.4183 88.2002 31.5228 87.8902 31.5228H83.6478C83.4248 31.5228 83.2507 31.4758 83.1148 31.3817C82.9842 31.2877 82.8809 31.1362 82.8102 30.9219L81.8801 28.3096H75.2228L75.2282 28.3148ZM76.6206 24.2135H80.5041L78.5569 18.5343L76.6206 24.2135Z" fill="#F9FBFF"/>
<path d="M103.554 30.8331L96.8154 20.1173V30.8696C96.8154 31.0577 96.7556 31.2092 96.6305 31.3346C96.5054 31.46 96.3422 31.5175 96.141 31.5175H92.399C92.1977 31.5175 92.0291 31.4548 91.8931 31.3346C91.7626 31.2092 91.6919 31.0577 91.6919 30.8696V13.0117C91.6919 12.8237 91.7626 12.6669 91.8986 12.5363C92.0346 12.4057 92.2032 12.3378 92.3935 12.3378H97.2451C97.4681 12.3378 97.653 12.3796 97.7999 12.4632C97.9522 12.5468 98.0882 12.6878 98.2133 12.8811L104.631 23.2782V13.0117C104.631 12.8237 104.697 12.6669 104.833 12.5363C104.963 12.4057 105.126 12.3378 105.322 12.3378H109.048C109.233 12.3378 109.401 12.4057 109.543 12.5415C109.69 12.6774 109.76 12.8341 109.76 13.0117V30.8696C109.76 31.0473 109.69 31.1988 109.548 31.3294C109.407 31.4548 109.238 31.5227 109.042 31.5227H105.023C104.642 31.5227 104.338 31.4705 104.109 31.366C103.881 31.2615 103.69 31.0839 103.538 30.8383L103.554 30.8331Z" fill="#F9FBFF"/>
<path d="M114.515 12.3378H123.016C125.986 12.3378 128.401 13.2207 130.267 14.9867C132.127 16.7526 133.057 19.0515 133.057 21.878C133.057 24.7045 132.121 27.04 130.25 28.832C128.379 30.6241 125.97 31.5175 123.016 31.5175H114.515C114.319 31.5175 114.156 31.4496 114.02 31.319C113.884 31.1883 113.814 31.0264 113.814 30.8278V13.0117C113.814 12.8237 113.884 12.6669 114.02 12.5363C114.156 12.4057 114.325 12.3378 114.515 12.3378ZM118.932 26.9982H122.897C124.256 26.9982 125.399 26.5018 126.318 25.5039C127.237 24.506 127.699 23.2991 127.699 21.878C127.699 20.4569 127.243 19.2813 126.329 18.3096C125.415 17.343 124.273 16.8571 122.902 16.8571H118.937V26.9982H118.932Z" fill="#F9FBFF"/>
<path d="M139.904 30.8539V24.1403L133.138 13.4767C132.969 13.205 132.942 12.949 133.056 12.7139C133.17 12.4788 133.377 12.3586 133.665 12.3586H138.24C138.408 12.3586 138.561 12.4004 138.691 12.484C138.822 12.5676 138.936 12.693 139.034 12.855L142.536 18.832H142.602L146.077 12.855C146.175 12.693 146.289 12.5729 146.42 12.484C146.55 12.4004 146.703 12.3586 146.871 12.3586H151.206C151.527 12.3586 151.739 12.4736 151.853 12.6982C151.968 12.9229 151.935 13.1841 151.745 13.4819L145.006 24.1455V30.8592C145.006 31.0473 144.94 31.2092 144.804 31.3451C144.674 31.4809 144.511 31.5488 144.326 31.5488H140.584C140.388 31.5488 140.225 31.4809 140.089 31.3503C139.953 31.2197 139.882 31.0577 139.882 30.8592L139.904 30.8539Z" fill="#FFBB04"/>
<path d="M163.253 11.9363C166.266 11.9363 168.817 12.9028 170.906 14.8412C172.994 16.7795 174.033 19.1411 174.033 21.9363C174.033 24.7315 172.989 27.0878 170.906 29.0261C168.817 30.9645 166.266 31.9363 163.253 31.9363C160.24 31.9363 157.7 30.9645 155.617 29.0261C153.528 27.0878 152.489 24.721 152.489 21.9363C152.489 19.1515 153.533 16.7743 155.617 14.8412C157.705 12.9028 160.251 11.9363 163.253 11.9363ZM163.253 27.3647C164.798 27.3647 166.092 26.8422 167.125 25.8025C168.159 24.7628 168.676 23.4723 168.676 21.9363C168.676 20.4002 168.159 19.1097 167.131 18.07C166.103 17.0303 164.808 16.5079 163.253 16.5079C161.697 16.5079 160.419 17.0303 159.386 18.07C158.358 19.1097 157.841 20.4002 157.841 21.9363C157.841 23.4723 158.358 24.7628 159.386 25.8025C160.414 26.8422 161.703 27.3647 163.253 27.3647Z" fill="#FFBB04"/>
<path d="M194.201 13.0046V24.4832C194.201 26.8082 193.407 28.6316 191.813 29.9534C190.22 31.2753 188.137 31.9336 185.553 31.9336C182.97 31.9336 180.886 31.2753 179.298 29.9534C177.71 28.6316 176.916 26.8082 176.916 24.4832V13.0046C176.916 12.827 176.987 12.6702 177.123 12.5396C177.259 12.409 177.427 12.3411 177.618 12.3411H181.332C181.528 12.3411 181.691 12.409 181.827 12.5396C181.963 12.6702 182.034 12.827 182.034 13.0046V24.0757C182.034 25.0945 182.349 25.9043 182.98 26.5104C183.611 27.1112 184.465 27.4142 185.548 27.4142C186.63 27.4142 187.478 27.1164 188.109 26.5156C188.735 25.9148 189.05 25.1049 189.05 24.0757V13.0046C189.05 12.827 189.121 12.6702 189.262 12.5396C189.404 12.409 189.572 12.3411 189.768 12.3411H193.483C193.679 12.3411 193.848 12.409 193.989 12.5396C194.13 12.6702 194.201 12.827 194.201 13.0046Z" fill="#FFBB04"/>
</svg>
