<svg width="91" height="67" viewBox="0 0 91 67" fill="none" xmlns="http://www.w3.org/2000/svg">
<path d="M18.1027 14.5957L33.507 31.4531H33.7365V32.8994L33.1515 32.2598H23.631C23.6284 32.2634 23.6249 32.2676 23.6212 32.2734C23.582 32.3355 23.536 32.459 23.5021 32.6631C23.4354 33.0646 23.4359 33.6345 23.4786 34.2607C23.5634 35.5037 23.8048 36.854 23.8927 37.2559L24.0675 37.9814C26.0298 45.4444 32.4931 51.8112 39.9708 53.7051C47.6847 55.6587 54.6077 53.4522 60.9796 48.5469L61.2755 48.3193L61.5255 48.5957L68.2296 56.0195L68.3322 56.1328L68.3331 56.2861L68.3419 57.1221L68.3439 57.3018L68.2111 57.4238C51.9712 72.3437 25.7733 67.6215 15.7355 48.1094L15.5011 47.6455C12.996 42.5864 12.3076 37.7324 11.8439 32.2637H0.930786L1.56848 31.585L17.5109 14.5918L17.8087 14.2744L18.1027 14.5957ZM22.5138 9.18848C38.8816 -5.84927 65.365 -0.929577 75.2238 18.9707C77.7287 24.0295 78.4163 28.8832 78.88 34.3516H89.7941L73.214 52.0234L72.9161 52.3418L72.6222 52.0195L57.0939 35.0273L56.4767 34.3516H67.0939C67.0964 34.348 67.1 34.3436 67.1036 34.3379C67.1428 34.2758 67.1889 34.153 67.2228 33.9492C67.2894 33.5477 67.2889 32.9778 67.2462 32.3516C67.1614 31.1079 66.92 29.7567 66.8322 29.3555V29.3545C65.1095 21.5821 58.4725 14.8621 50.754 12.9072C43.04 10.9536 36.1172 13.16 29.7452 18.0654L29.4493 18.293L29.1993 18.0156L22.4952 10.5918L22.3927 10.4785L22.3917 10.3262L22.3829 9.48926L22.381 9.30957L22.5138 9.18848Z" fill="#002778" stroke="#FFE094" stroke-width="0.806468"/>
</svg>
